<svg width="23" height="21" viewBox="0 0 23 21" fill="none" xmlns="http://www.w3.org/2000/svg">
<path d="M6.61536 15.0754C8.11138 16.4166 9.72821 17.616 11.445 18.6584C13.1617 17.6161 14.7784 16.4168 16.2744 15.0757C19.854 11.8538 21.3898 8.88717 21.39 6.26279C21.3896 5.24419 21.0628 4.25209 20.4574 3.43288C19.852 2.61354 18.9999 2.00986 18.0261 1.71043C17.0524 1.411 16.0083 1.4316 15.0471 1.76919C14.0859 2.10679 13.2582 2.74361 12.6856 3.58618L11.445 5.41153L10.2044 3.58618C9.63176 2.74361 8.8041 2.10679 7.84291 1.76919C6.88173 1.4316 5.83763 1.411 4.86388 1.71043C3.89013 2.00986 3.038 2.61354 2.43257 3.43288C1.82722 4.25209 1.50038 5.24419 1.5 6.26279C1.50017 8.88711 3.03596 11.8537 6.61536 15.0754Z" stroke="#FCC436" stroke-width="3"/>
</svg>
